<?xml version="1.0" encoding="UTF-8"?>
<!DOCTYPE svg PUBLIC "-//W3C//DTD SVG 1.1//EN" "http://www.w3.org/Graphics/SVG/1.1/DTD/svg11.dtd">
<!-- Creator: CorelDRAW -->
<svg xmlns="http://www.w3.org/2000/svg" xml:space="preserve" width="50mm" height="35mm" style="shape-rendering:geometricPrecision; text-rendering:geometricPrecision; image-rendering:optimizeQuality; fill-rule:evenodd; clip-rule:evenodd"
viewBox="0 0 50 35"
 xmlns:xlink="http://www.w3.org/1999/xlink">
 <defs>
  <style type="text/css">
   <![CDATA[
    .str0 {stroke:black;stroke-width:0.0762}
    .fil0 {fill:#FEFEFE;fill-rule:nonzero}
    .fil2 {fill:#00934C;fill-rule:nonzero}
    .fil1 {fill:#69696B;fill-rule:nonzero}
    .fil3 {fill:#7F7679;fill-rule:nonzero}
   ]]>
  </style>
 </defs>
 <g id="Layer_x0020_1">
  <metadata id="CorelCorpID_0Corel-Layer"/>
  <path class="fil0 str0" d="M5.2445 3.3889l39.5111 0c0.7793,0 1.4111,0.6318 1.4111,1.4111l0 25.4c0,0.7793 -0.6318,1.4111 -1.4111,1.4111l-39.5111 0c-0.7793,0 -1.4112,-0.6318 -1.4112,-1.4111l0 -25.4c0,-0.7793 0.6319,-1.4111 1.4112,-1.4111z"/>
  <path class="fil1" d="M6.92 16.9522c0,-1.0388 0.0095,-2.0778 -0.0063,-3.1165 -0.0042,-0.275 0.07,-0.4542 0.2959,-0.6235 1.1583,-0.8683 2.3068,-1.7501 3.4495,-2.6388 0.2008,-0.1562 0.3455,-0.1796 0.5734,-0.0388 1.2302,0.7607 2.4697,1.5066 3.7135,2.245 0.2124,0.1261 0.3146,0.2594 0.3062,0.517 -0.019,0.5847 -0.0111,1.1704 -0.0034,1.7557 0.0027,0.2104 -0.0453,0.3231 -0.2905,0.3228 -0.2421,-0.0004 -0.2957,-0.104 -0.2911,-0.3198 0.0107,-0.4972 -0.007,-0.9951 0.0084,-1.4921 0.0067,-0.2185 -0.0686,-0.3452 -0.2551,-0.4559 -1.0676,-0.6343 -2.1313,-1.2755 -3.1892,-1.9258 -0.194,-0.1191 -0.3214,-0.1025 -0.4997,0.0365 -1.003,0.7827 -2.0129,1.5567 -3.0324,2.3177 -0.1946,0.1453 -0.2261,0.3051 -0.2255,0.521 0.0054,2.0191 0.004,4.0383 0.0017,6.0576 -0.0001,0.1746 0.0732,0.3845 -0.2528,0.3826 -0.2678,-0.0016 -0.3086,-0.1101 -0.3066,-0.3403 0.0092,-1.0681 0.004,-2.1363 0.004,-3.2044z"/>
  <g id="_254182616">
   <path id="_254186192" class="fil2" d="M8.9564 20.4406l0 -1.8215 1.2691 0c0.2094,-0.0011 0.3957,-0.0362 0.559,-0.103 0.1633,-0.068 0.3014,-0.1611 0.4154,-0.2795 0.1128,-0.1184 0.1994,-0.2543 0.2586,-0.4077 0.0592,-0.1545 0.0888,-0.3178 0.0888,-0.4921 0,-0.1742 -0.0296,-0.3375 -0.0877,-0.4921 -0.0592,-0.1534 -0.1447,-0.2893 -0.2576,-0.4077 -0.1128,-0.1183 -0.2509,-0.2115 -0.4142,-0.2794 -0.1644,-0.0669 -0.3518,-0.102 -0.5623,-0.1031l-1.6439 0 0 4.3861 0.3748 0zm1.2297 -2.1634l-1.2297 0 0 -1.8807 1.2297 0c0.1962,0.0011 0.366,0.0416 0.5107,0.1205 0.1447,0.08 0.2565,0.1896 0.3354,0.3299 0.0789,0.1414 0.1194,0.3047 0.1205,0.4899 -0.0011,0.183 -0.0416,0.3453 -0.1205,0.4866 -0.0789,0.1403 -0.1907,0.251 -0.3354,0.331 -0.1447,0.08 -0.3145,0.1217 -0.5107,0.1228zm5.2409 2.1634l-1.7952 -4.3861 -0.4669 0 -1.7952 4.3861 0.434 0 0.434 -1.0784 2.3213 0 0.434 1.0784 0.434 0zm-0.9929 -1.4204l-2.0714 0 1.039 -2.5645 1.0324 2.5645zm2.9064 1.4204l0 -1.8741 1.7426 -2.512 -0.4537 0 -1.4796 2.1569 -1.4795 -2.1569 -0.4538 0 1.7426 2.512 0 1.8741 0.3814 0z"/>
   <path id="_254185064" class="fil3" d="M21.9961 20.4406l0 -2.295c-0.0011,-0.1611 -0.0285,-0.3013 -0.0822,-0.4219 -0.0548,-0.1206 -0.1315,-0.2203 -0.229,-0.3003 -0.0986,-0.0789 -0.2137,-0.1392 -0.3463,-0.1786 -0.1326,-0.0395 -0.2773,-0.0592 -0.434,-0.0592 -0.1765,0 -0.3332,0.0208 -0.4713,0.0614 -0.1381,0.0405 -0.2641,0.1008 -0.377,0.1819 -0.1129,0.0811 -0.2203,0.1819 -0.3222,0.3025l0.1512 0.1315c0.0976,-0.1184 0.1995,-0.2137 0.3036,-0.2872 0.1041,-0.0745 0.2159,-0.1282 0.3332,-0.1622 0.1172,-0.0339 0.2455,-0.0515 0.3825,-0.0504 0.1227,0 0.2378,0.0176 0.3452,0.0515 0.1074,0.034 0.2027,0.0844 0.2849,0.1502 0.0822,0.0668 0.1458,0.149 0.1929,0.2477 0.0472,0.0986 0.0702,0.2115 0.0713,0.3397l0 0.7168c-0.1469,-0.16 -0.3113,-0.2784 -0.4921,-0.354 -0.1809,-0.0756 -0.3836,-0.114 -0.6061,-0.1129 -0.1425,0 -0.2806,0.0241 -0.4121,0.0701 -0.1326,0.0461 -0.251,0.1151 -0.3551,0.205 -0.1052,0.091 -0.1885,0.2016 -0.2498,0.3321 -0.0614,0.1315 -0.0932,0.2816 -0.0943,0.4515 0.0011,0.1699 0.0329,0.32 0.0953,0.4515 0.0614,0.1305 0.1458,0.2412 0.251,0.3321 0.1052,0.0899 0.2236,0.1578 0.3551,0.205 0.1326,0.046 0.2685,0.0701 0.4099,0.0701 0.2225,0.0011 0.4252,-0.0373 0.6061,-0.1129 0.1808,-0.0756 0.3452,-0.194 0.4921,-0.354l0 0.388 0.1972 0zm-1.2428 -0.0986c-0.194,-0.0022 -0.3617,-0.0417 -0.503,-0.1184 -0.1414,-0.0778 -0.2499,-0.183 -0.3266,-0.3156 -0.0778,-0.1316 -0.1162,-0.2806 -0.1173,-0.4472 0.0011,-0.1666 0.0395,-0.3156 0.1173,-0.4482 0.0767,-0.1316 0.1852,-0.2368 0.3266,-0.3146 0.1413,-0.0767 0.309,-0.1173 0.503,-0.1184 0.1392,0 0.2729,0.0187 0.4011,0.0548 0.1283,0.0362 0.2477,0.0899 0.3573,0.1623 0.1096,0.0723 0.205,0.1622 0.2872,0.2696l0 0.7891c-0.0822,0.1074 -0.1776,0.1972 -0.2872,0.2696 -0.1096,0.0723 -0.229,0.126 -0.3573,0.1622 -0.1282,0.0361 -0.2619,0.0548 -0.4011,0.0548zm2.9526 0.1775c0.0778,0 0.1468,-0.0088 0.2049,-0.0252 0.0592,-0.0164 0.1118,-0.0384 0.1579,-0.0679 0.046,-0.0296 0.0898,-0.0647 0.1304,-0.1042l-0.1184 -0.1512c-0.0405,0.0471 -0.0931,0.0877 -0.1578,0.1205 -0.0647,0.0318 -0.137,0.0494 -0.217,0.0505 -0.0789,-0.0011 -0.1436,-0.0209 -0.194,-0.0592 -0.0504,-0.0395 -0.0877,-0.0932 -0.1118,-0.1622 -0.0241,-0.0691 -0.0362,-0.148 -0.0362,-0.2389l0 -2.4397 0.6445 0 0 -0.1775 -0.6445 0 0 -0.868 -0.1972 0 0 0.868 -0.5261 0 0 0.1775 0.5261 0 0 2.4397c0,0.1326 0.0197,0.2455 0.0581,0.3408 0.0383,0.0954 0.0975,0.1677 0.1775,0.2192 0.08,0.0515 0.1808,0.0767 0.3036,0.0778zm4.9187 -0.0789l0 -4.3861 -0.9404 0 0 1.7229 -2.0713 0 0 -1.7229 -0.9338 0 0 4.3861 0.9338 0 0 -1.8412 2.0713 0 0 1.8412 0.9404 0zm2.9394 0.0789c0.3342,-0.0011 0.64,-0.0581 0.9195,-0.1688 0.2783,-0.1107 0.5206,-0.2674 0.7266,-0.4701 0.2049,-0.2028 0.3639,-0.4417 0.4767,-0.7179 0.1129,-0.2762 0.171,-0.5798 0.1721,-0.9118 -0.0011,-0.3321 -0.0592,-0.6357 -0.1721,-0.9119 -0.1128,-0.2762 -0.2718,-0.5162 -0.4767,-0.7178 -0.206,-0.2028 -0.4483,-0.3595 -0.7266,-0.4702 -0.2795,-0.1107 -0.5853,-0.1677 -0.9195,-0.1688 -0.3321,0.0011 -0.6368,0.0581 -0.9152,0.1688 -0.2784,0.1107 -0.5195,0.2674 -0.7244,0.4702 -0.205,0.2016 -0.3639,0.4416 -0.4768,0.7178 -0.1128,0.2762 -0.1698,0.5798 -0.172,0.9119 0.0022,0.332 0.0592,0.6356 0.172,0.9118 0.1129,0.2762 0.2718,0.5151 0.4768,0.7179 0.2049,0.2027 0.446,0.3594 0.7244,0.4701 0.2784,0.1107 0.5831,0.1677 0.9152,0.1688zm0 -0.8285c-0.2028,-0.0011 -0.3858,-0.0384 -0.5491,-0.1107 -0.1622,-0.0724 -0.3025,-0.1732 -0.4187,-0.3036 -0.1162,-0.1304 -0.2049,-0.2828 -0.2663,-0.457 -0.0625,-0.1743 -0.0932,-0.3639 -0.0943,-0.5688 0.0011,-0.2072 0.0318,-0.3968 0.0943,-0.5721 0.0614,-0.1743 0.1501,-0.3266 0.2663,-0.456 0.1162,-0.1304 0.2565,-0.2312 0.4187,-0.3024 0.1633,-0.0724 0.3463,-0.1085 0.5491,-0.1096 0.2027,0.0011 0.3857,0.0372 0.5501,0.1096 0.1633,0.0712 0.3036,0.172 0.4209,0.3024 0.1173,0.1294 0.2071,0.2817 0.2696,0.456 0.0625,0.1753 0.0942,0.3649 0.0942,0.5721 0,0.2049 -0.0317,0.3945 -0.0942,0.5688 -0.0625,0.1742 -0.1523,0.3266 -0.2696,0.457 -0.1173,0.1304 -0.2576,0.2312 -0.4209,0.3036 -0.1644,0.0723 -0.3474,0.1096 -0.5501,0.1107zm7.7068 0.7496l0 -4.3861 -1.3152 0 -1.0652 2.6501 -1.0653 -2.6501 -1.3086 0 0 4.3861 0.9338 0 0 -3.0709 1.2362 3.0709 0.4077 0 1.2363 -3.0709 0 3.0709 0.9403 0zm3.9718 0l0 -0.822 -2.17 0 0 -0.9929 2.1239 0 0 -0.822 -2.1239 0 0 -0.9272 2.17 0 0 -0.822 -3.1038 0 0 4.3861 3.1038 0z"/>
  </g>
 </g>
</svg>
