<?xml version="1.0" encoding="UTF-8" standalone="no"?>
<svg width="120px" height="80px" viewBox="0 0 120 80" version="1.1" xmlns="http://www.w3.org/2000/svg" xmlns:xlink="http://www.w3.org/1999/xlink" xmlns:sketch="http://www.bohemiancoding.com/sketch/ns">
    <!-- Generator: Sketch 3.3 (11970) - http://www.bohemiancoding.com/sketch -->
    <title>card_sofort_en</title>
    <desc>Created with Sketch.</desc>
    <defs></defs>
    <g id="assets-various" stroke="none" stroke-width="1" fill="none" fill-rule="evenodd" sketch:type="MSPage">
        <g id="Artboard-2" sketch:type="MSArtboardGroup" transform="translate(-213.000000, -1175.000000)">
            <g id="card_sofort_en" sketch:type="MSLayerGroup" transform="translate(213.000000, 1175.000000)">
                <rect id="Rectangle-11" fill="#FFFFFF" sketch:type="MSShapeGroup" x="0" y="0" width="120" height="80" rx="4"></rect>
                <g id="Group-Copy-2" transform="translate(16.000000, 27.000000)" sketch:type="MSShapeGroup">
                    <path d="M75.7518168,0.358481928 C76.0667939,0.609 76.3385802,0.895156627 76.5650687,1.22219277 C77.1434046,2.06074699 77.3656794,3.05862651 77.234,4.20115663 L80.1994198,4.20115663 L75.7286412,16.5457229 L80.1952061,16.5457229 L84.6670382,4.20115663 L90.4040458,4.20115663 L91.796687,0.358481928 L75.7518168,0.358481928" id="Fill-1" fill="#ED7F02"></path>
                    <path d="M71.1946565,5.52187952 C70.7163969,6.8153494 69.8578473,7.61512048 68.2250229,7.61512048 L68.2187023,7.61512048 L67.3738473,7.61407229 L68.8181069,3.70012048 L69.6397863,3.70012048 C71.1430382,3.70116867 71.7045191,4.14245783 71.1946565,5.52187952 M75.5284885,1.94649398 C74.7942443,0.883626506 73.2994198,0.361626506 70.9576336,0.35953012 L65.5366565,0.35953012 L59.6732366,16.5436265 L64.6538779,16.5436265 L66.7849771,10.8466988 C66.8892672,11.0804458 68.1470687,16.5436265 68.1470687,16.5436265 L73.3826412,16.5436265 C73.3826412,16.5436265 72.4303359,12.5290482 71.7298015,10.907494 C71.5496641,10.4913614 71.3621527,10.0238675 71.1114351,9.63393976 C72.590458,9.08154217 74.733145,7.89603614 75.6201374,5.49253012 C76.1658168,4.01562651 76.1342137,2.82278313 75.5284885,1.94649398" id="Fill-2" fill="#ED7F02"></path>
                    <path d="M16.2506412,0.349048193 C14.7947939,0.349048193 13.381084,0.349048193 12.1138015,0.99473494 C10.8465191,1.64146988 9.72882443,2.93493976 8.8671145,5.52083133 C8.68065649,6.07742169 8.58163359,6.55644578 8.56899237,6.97153012 C8.55635115,7.38975904 8.62798473,7.74404819 8.78494656,8.05221687 C8.97877863,8.42746988 9.29270229,8.78175904 9.68563359,9.08049398 C10.0785649,9.37818072 10.5494504,9.62136145 11.0561527,9.77649398 C11.0761679,9.78173494 11.342687,9.85825301 11.6650382,9.95049398 C11.9863359,10.0437831 12.3634656,10.1548916 12.601542,10.2272169 C12.7405954,10.2701928 12.8943969,10.325747 13.0334504,10.4096024 C13.1725038,10.4924096 13.2968092,10.6035181 13.3758168,10.7586506 C13.4263817,10.8613735 13.4548244,10.9724819 13.4579847,11.0930241 C13.461145,11.2135663 13.4411298,11.3435422 13.3937252,11.4798072 C13.2757405,11.832 13.0966565,12.0573614 12.7553435,12.1967711 C12.415084,12.3340843 11.9125954,12.3791566 11.1520153,12.3854458 L1.65003053,12.3854458 L0.147832061,16.5320964 L10.3187481,16.5320964 C11.2752672,16.5320964 13.0250229,16.5320964 14.7063053,15.8140843 C16.3875878,15.0960723 18.0003969,13.6610964 18.6830229,10.7900964 C18.9400611,9.71045783 18.8610534,8.83207229 18.4396794,8.14131325 C18.0183053,7.45055422 17.2545649,6.95056627 16.1442443,6.62981928 C16.1442443,6.62981928 15.8956336,6.55749398 15.6027786,6.47259036 C15.3109771,6.38873494 14.9749313,6.2923012 14.8021679,6.24198795 C14.5177405,6.16022892 14.2996794,5.99461446 14.1701069,5.78392771 C14.0415878,5.57428916 14.0026107,5.31853012 14.0763511,5.05753012 C14.1521985,4.78709639 14.3365496,4.57012048 14.6030687,4.42127711 C14.8706412,4.27243373 15.2224885,4.1906747 15.6322748,4.1906747 L21.5441527,4.1906747 C21.5852366,4.12987952 21.6231603,4.06489157 21.6652977,4.00409639 C22.7450687,2.46849398 24.0523817,1.22638554 25.484,0.349048193 L16.2506412,0.349048193 Z" id="Fill-3" fill="#ED7F02"></path>
                    <path d="M29.8209924,8.3666747 C28.4409924,12.1621807 27.4391756,13.1181325 25.9317099,13.1181325 L25.9285496,13.1181325 C24.4600611,13.1160361 23.9449313,12.1820964 25.3196641,8.40440964 C26.3457099,5.58372289 27.675145,3.77978313 29.282687,3.77978313 L29.2837405,3.77978313 C30.8133282,3.78187952 31.1641221,4.67284337 29.8209924,8.3666747 M34.5561832,1.86578313 C33.7513588,0.708578313 32.3745191,0.120542169 30.4583206,0.118445783 C29.2047328,0.118445783 27.9880153,0.407746988 26.847145,0.948614458 C25.2164275,1.72427711 23.7374046,3.01879518 22.5301679,4.73678313 C21.7464122,5.85206024 21.075374,7.14343373 20.5486565,8.58889157 C19.557374,11.3173373 19.5689618,13.5311205 20.5823664,14.9902048 C21.157542,15.8140843 22.351084,16.7993855 24.7792519,16.8014819 L24.7887328,16.8014819 C29.2121069,16.8014819 32.5156794,13.887506 34.6067481,8.14026506 C35.1587481,6.61828916 35.8877252,3.78083133 34.5561832,1.86578313" id="Fill-4" fill="#ED7F02"></path>
                    <path d="M52.2338779,0.349048193 L42.823542,0.349048193 C40.1931145,0.349048193 38.2347786,1.68654217 37.3098626,4.1906747 L32.8401374,16.5320964 L37.7365038,16.5320964 L40.0329924,10.1873855 L44.3605038,10.1905301 L45.590916,6.79333735 L41.2781527,6.79019277 L41.9723664,4.82273494 C42.1177405,4.47054217 42.4632672,4.18962651 42.9699695,4.18962651 C43.2512366,4.18962651 46.4273435,4.1906747 48.0717557,4.19172289 C48.1138931,4.13092771 48.1518168,4.06489157 48.1939542,4.00409639 C49.2737252,2.46849398 50.8022595,1.22638554 52.2338779,0.349048193" id="Fill-5" fill="#ED7F02"></path>
                    <path d="M56.5139847,8.3666747 C55.1350382,12.1621807 54.1332214,13.1181325 52.6257557,13.1181325 L52.6225954,13.1181325 C51.1530534,13.1160361 50.6400305,12.1820964 52.0137099,8.40440964 C53.0387023,5.58372289 54.3691908,3.77978313 55.9767328,3.77978313 L55.9788397,3.77978313 C57.507374,3.78187952 57.8581679,4.67284337 56.5139847,8.3666747 M61.250229,1.86578313 C60.4443511,0.708578313 59.0685649,0.120542169 57.151313,0.118445783 C55.8987786,0.118445783 54.6820611,0.407746988 53.5422443,0.948614458 C51.9104733,1.72427711 50.4325038,3.01879518 49.2242137,4.73678313 C48.4394046,5.85206024 47.7694198,7.14343373 47.2427023,8.58889157 C46.2514198,11.3173373 46.2630076,13.5311205 47.2774656,14.9902048 C47.8515878,15.8140843 49.0451298,16.7993855 51.4754046,16.8014819 L51.4817252,16.8014819 C55.9072061,16.8014819 59.2107786,13.887506 61.2997405,8.14026506 C61.8538473,6.61828916 62.581771,3.78083133 61.250229,1.86578313" id="Fill-6" fill="#ED7F02"></path>
                    <path d="M5.8988855,22.7373976 C5.95682443,22.5759759 5.98421374,22.4323735 5.98105344,22.3034458 C5.97894656,22.1745181 5.94312977,22.0686506 5.87465649,21.983747 C5.80618321,21.8988434 5.70610687,21.8338554 5.57232061,21.7866867 C5.43748092,21.7416145 5.24575573,21.7185542 4.99398473,21.7185542 L4.17230534,21.7185542 L3.41699237,23.805506 L4.32505344,23.805506 C4.55996947,23.805506 4.75696183,23.778253 4.91708397,23.7206024 C5.07825954,23.6660964 5.22152672,23.5885301 5.34899237,23.4920964 C5.47751145,23.3946145 5.5870687,23.2814096 5.68082443,23.1503855 C5.77352672,23.0204096 5.84516031,22.8830964 5.8988855,22.7373976 M5.06667176,26.1775663 C5.13303817,25.990988 5.16358779,25.8253735 5.15410687,25.6775783 C5.14567939,25.5308313 5.09932824,25.4081928 5.01716031,25.3086145 C4.9328855,25.2090361 4.80858015,25.1325181 4.6421374,25.0790602 C4.47569466,25.0245542 4.24499237,24.9983494 3.9489771,24.9983494 L2.98508397,24.9983494 L2.1581374,27.2813133 L3.33166412,27.2813133 C3.55815267,27.2813133 3.75619847,27.258253 3.9279084,27.2121325 C4.10067176,27.1639157 4.25974046,27.0936867 4.40722137,27.0003976 C4.55364885,26.9060602 4.68427481,26.790759 4.79909924,26.6523976 C4.91287023,26.512988 5.00135878,26.3547108 5.06667176,26.1775663 M6.77323664,26.122012 C6.67,26.4071205 6.53726718,26.6660241 6.37398473,26.8987229 C6.21175573,27.1293253 6.02951145,27.3347711 5.82725191,27.5129639 C5.62499237,27.6901084 5.40482443,27.8431446 5.16674809,27.9720723 C4.92867176,28.101 4.68006107,28.2058193 4.41880916,28.2875783 C4.15861069,28.3714337 3.88998473,28.4322289 3.61398473,28.4720602 C3.33903817,28.5118916 3.0398626,28.530759 2.71856489,28.530759 L0.59378626,28.530759 C0.45789313,28.530759 0.357816794,28.4909277 0.293557252,28.4091687 C0.230351145,28.3284578 0.232458015,28.1984819 0.297770992,28.0150482 L2.83444275,21.0099759 C2.90080916,20.8286386 2.99456489,20.6986627 3.11676336,20.6158554 C3.23896183,20.5361928 3.36748092,20.4963614 3.50337405,20.4963614 L5.51122137,20.4963614 C6.0010687,20.4963614 6.40137405,20.5361928 6.71108397,20.6200482 C7.02079389,20.7018072 7.26203053,20.8275904 7.43374046,20.9953012 C7.60545038,21.163012 7.70658015,21.3757952 7.73712977,21.6326024 C7.76873282,21.8894096 7.72132824,22.1912892 7.59491603,22.5392892 C7.52433588,22.734253 7.43268702,22.9166386 7.3210229,23.0885422 C7.20935878,23.2593976 7.08083969,23.4166265 6.93651908,23.5570843 C6.7900916,23.6975422 6.62891603,23.8222771 6.45193893,23.930241 C6.27496183,24.0382048 6.08534351,24.1241566 5.88519084,24.1901928 C6.09587786,24.2310723 6.27812214,24.3033976 6.4329771,24.4082169 C6.58677863,24.511988 6.70476336,24.6451084 6.78798473,24.8086265 C6.87120611,24.9710964 6.91439695,25.1639639 6.91755725,25.3830361 C6.91966412,25.6021084 6.87225954,25.8473855 6.77323664,26.122012" id="Fill-8" fill="#3A3A3A"></path>
                    <path d="M32.587313,28.3064458 C32.5725649,28.3483735 32.546229,28.3850602 32.5072519,28.4186024 C32.4682748,28.4510964 32.4145496,28.4783494 32.3450229,28.4982651 C32.2754962,28.5192289 32.1880611,28.536 32.0795573,28.5485783 C31.9721069,28.5611566 31.8383206,28.5674458 31.6781985,28.5674458 C31.5212366,28.5674458 31.3927176,28.5611566 31.2926412,28.5485783 C31.1915115,28.536 31.1146107,28.5192289 31.0598321,28.4982651 C31.0050534,28.4783494 30.9702901,28.4510964 30.9565954,28.4186024 C30.9407939,28.3850602 30.9418473,28.3483735 30.9565954,28.3064458 L33.7039542,20.7185783 C33.7197557,20.6776988 33.7460916,20.6399639 33.7850687,20.6074699 C33.8240458,20.5739277 33.8798779,20.5477229 33.950458,20.526759 C34.0220916,20.5057952 34.1105802,20.4890241 34.219084,20.4764458 C34.3265344,20.4649157 34.4582137,20.4575783 34.6151756,20.4575783 C34.7752977,20.4575783 34.9048702,20.4649157 35.0038931,20.4764458 C35.1018626,20.4890241 35.1787634,20.5057952 35.2324885,20.526759 C35.2872672,20.5477229 35.3220305,20.5739277 35.3367786,20.6074699 C35.3515267,20.6399639 35.3515267,20.6776988 35.3357252,20.7185783 L32.587313,28.3064458" id="Fill-13" fill="#3A3A3A"></path>
                    <path d="M21.9040763,27.959494 C21.869313,28.0548795 21.8229618,28.1397831 21.7618626,28.2142048 C21.7028702,28.2886265 21.6354504,28.3504699 21.5627634,28.3997349 C21.4890229,28.4500482 21.4100153,28.4867349 21.3257405,28.508747 C21.2404122,28.5318072 21.1592977,28.5433373 21.0813435,28.5433373 L20.3892366,28.5433373 C20.244916,28.5433373 20.1258779,28.5286627 20.0310687,28.4993133 C19.9362595,28.471012 19.8593588,28.4186024 19.7982595,28.3410361 C19.7371603,28.2655663 19.6897557,28.1617952 19.6539389,28.0307711 C19.6191756,27.9007952 19.5875725,27.7320361 19.5601832,27.5255422 L18.9291756,23.7677711 C18.8965191,23.544506 18.8659695,23.3044699 18.840687,23.0455663 C18.8143511,22.7866627 18.7985496,22.5350964 18.7932824,22.2908675 L18.7806412,22.2908675 C18.6889924,22.5885542 18.5941832,22.886241 18.4951603,23.1818313 C18.3961374,23.4774217 18.288687,23.7824458 18.174916,24.0979518 L16.6527023,28.3012048 C16.6379542,28.3420843 16.6126718,28.3798193 16.5779084,28.4133614 C16.5441985,28.4458554 16.494687,28.4731084 16.4304275,28.4961687 C16.3672214,28.5192289 16.2850534,28.5370482 16.187084,28.5496265 C16.0870076,28.5622048 15.9627023,28.568494 15.8141679,28.568494 C15.6709008,28.568494 15.5539695,28.5622048 15.463374,28.5496265 C15.3738321,28.5370482 15.3053588,28.5192289 15.2600611,28.4961687 C15.2147634,28.4731084 15.1884275,28.4458554 15.1789466,28.4133614 C15.1705191,28.3798193 15.1736794,28.3420843 15.1884275,28.3012048 L17.8041069,21.0802048 C17.874687,20.885241 17.9831908,20.7395422 18.1317252,20.6420602 C18.2802595,20.5456265 18.4382748,20.4963614 18.6026107,20.4963614 L19.4738015,20.4963614 C19.6286565,20.4963614 19.7571756,20.5089398 19.8540916,20.5361928 C19.9510076,20.5634458 20.0310687,20.6085181 20.0932214,20.6703614 C20.1543206,20.7322048 20.2027786,20.8181566 20.237542,20.9282169 C20.2712519,21.0372289 20.2986412,21.1724458 20.3186565,21.3349157 L20.8116641,24.2709036 C20.838,24.4490964 20.8632824,24.6241446 20.8906718,24.7960482 C20.9170076,24.9679518 20.9412366,25.1398554 20.9612519,25.311759 C20.9812672,25.4826145 21.000229,25.6513735 21.0181374,25.8180361 C21.0360458,25.9826024 21.0529008,26.1482169 21.0676489,26.3138313 L21.072916,26.3138313 C21.1656183,26.0245301 21.2656947,25.7226506 21.373145,25.4071446 C21.4816489,25.0926867 21.5869924,24.7929036 21.690229,24.5077952 L23.0554809,20.738494 C23.070229,20.6965663 23.0965649,20.6598795 23.1334351,20.6263373 C23.1692519,20.5938434 23.2208702,20.564494 23.2882901,20.5393373 C23.3557099,20.5152289 23.4378779,20.4974096 23.5358473,20.4869277 C23.6348702,20.4764458 23.7581221,20.4712048 23.9056031,20.4712048 C24.0457099,20.4712048 24.1605344,20.4764458 24.2521832,20.4869277 C24.3438321,20.4974096 24.4101985,20.5152289 24.4523359,20.5393373 C24.4955267,20.564494 24.5208092,20.5938434 24.5281832,20.6263373 C24.5387176,20.6598795 24.5345038,20.6965663 24.5197557,20.738494 L21.9040763,27.959494" id="Fill-16" fill="#3A3A3A"></path>
                    <path d="M41.2170534,27.959494 C41.1822901,28.0548795 41.1359389,28.1397831 41.0748397,28.2142048 C41.0158473,28.2886265 40.9484275,28.3504699 40.8757405,28.3997349 C40.802,28.4500482 40.7229924,28.4867349 40.6387176,28.508747 C40.5533893,28.5318072 40.4722748,28.5433373 40.3943206,28.5433373 L39.7022137,28.5433373 C39.5578931,28.5433373 39.438855,28.5286627 39.3440458,28.4993133 C39.2492366,28.471012 39.1723359,28.4186024 39.1112366,28.3410361 C39.0501374,28.2655663 39.0027328,28.1617952 38.966916,28.0307711 C38.9321527,27.9007952 38.9005496,27.7320361 38.8731603,27.5255422 L38.2421527,23.7677711 C38.2094962,23.544506 38.1789466,23.3044699 38.1536641,23.0455663 C38.1273282,22.7866627 38.1115267,22.5350964 38.1062595,22.2908675 L38.0936183,22.2908675 C38.0019695,22.5885542 37.9071603,22.886241 37.8081374,23.1818313 C37.7091145,23.4774217 37.6016641,23.7824458 37.4878931,24.0979518 L35.9656794,28.3012048 C35.9509313,28.3420843 35.9256489,28.3798193 35.8908855,28.4133614 C35.8571756,28.4458554 35.8076641,28.4731084 35.7434046,28.4961687 C35.6801985,28.5192289 35.5980305,28.5370482 35.5000611,28.5496265 C35.3999847,28.5622048 35.2756794,28.568494 35.127145,28.568494 C34.9838779,28.568494 34.8669466,28.5622048 34.7763511,28.5496265 C34.6868092,28.5370482 34.6183359,28.5192289 34.5730382,28.4961687 C34.5277405,28.4731084 34.5014046,28.4458554 34.4919237,28.4133614 C34.4834962,28.3798193 34.4866565,28.3420843 34.5014046,28.3012048 L37.117084,21.0802048 C37.1876641,20.885241 37.2961679,20.7395422 37.4447023,20.6420602 C37.5932366,20.5456265 37.7512519,20.4963614 37.9155878,20.4963614 L38.7867786,20.4963614 C38.9416336,20.4963614 39.0701527,20.5089398 39.1670687,20.5361928 C39.2639847,20.5634458 39.3440458,20.6085181 39.4061985,20.6703614 C39.4672977,20.7322048 39.5157557,20.8181566 39.5505191,20.9282169 C39.584229,21.0372289 39.6116183,21.1724458 39.6316336,21.3349157 L40.1246412,24.2709036 C40.1509771,24.4490964 40.1762595,24.6241446 40.2036489,24.7960482 C40.2299847,24.9679518 40.2542137,25.1398554 40.274229,25.311759 C40.2942443,25.4826145 40.3132061,25.6513735 40.3311145,25.8180361 C40.3490229,25.9826024 40.3658779,26.1482169 40.380626,26.3138313 L40.3858931,26.3138313 C40.4785954,26.0245301 40.5786718,25.7226506 40.6861221,25.4071446 C40.794626,25.0926867 40.8999695,24.7929036 41.0032061,24.5077952 L42.368458,20.738494 C42.3832061,20.6965663 42.409542,20.6598795 42.4464122,20.6263373 C42.482229,20.5938434 42.5338473,20.564494 42.6012672,20.5393373 C42.668687,20.5152289 42.750855,20.4974096 42.8488244,20.4869277 C42.9478473,20.4764458 43.0710992,20.4712048 43.2185802,20.4712048 C43.358687,20.4712048 43.4735115,20.4764458 43.5651603,20.4869277 C43.6568092,20.4974096 43.7231756,20.5152289 43.765313,20.5393373 C43.8085038,20.564494 43.8337863,20.5938434 43.8411603,20.6263373 C43.8516947,20.6598795 43.8474809,20.6965663 43.8327328,20.738494 L41.2170534,27.959494" id="Fill-16-Copy" fill="#3A3A3A"></path>
                    <path d="M52.207542,21.7437108 C52.1643511,21.864253 52.1222137,21.9669759 52.0790229,22.0539759 C52.0379389,22.1409759 51.9979084,22.2112048 51.9620916,22.2625663 C51.9241679,22.3139277 51.8883511,22.3506145 51.8535878,22.3715783 C51.8188244,22.391494 51.7840611,22.4019759 51.7471908,22.4019759 C51.6934656,22.4019759 51.6207786,22.364241 51.5270229,22.2898193 C51.435374,22.2164458 51.3058015,22.1357349 51.1404122,22.0476867 C50.9739695,21.9617349 50.7664427,21.8799759 50.5209924,21.8055542 C50.2734351,21.7311325 49.9689924,21.6944458 49.6055573,21.6944458 C49.2189466,21.6944458 48.8449771,21.7615301 48.4825954,21.8956988 C48.1212672,22.0298675 47.7852214,22.2206386 47.4723511,22.4669639 C47.1605344,22.7132892 46.8824275,23.0099277 46.639084,23.3547831 C46.394687,23.7006867 46.1955878,24.0822289 46.0438931,24.5004578 C45.8774504,24.9606145 45.7921221,25.3652169 45.786855,25.7153133 C45.7815878,26.0643614 45.8458473,26.3578554 45.9785802,26.5926506 C46.111313,26.8295422 46.3093588,27.0066867 46.5727176,27.1272289 C46.8360763,27.2477711 47.1531603,27.3075181 47.5239695,27.3075181 C47.7041069,27.3075181 47.8926718,27.2865542 48.0843969,27.2456747 C48.2761221,27.203747 48.4636336,27.1419036 48.6458779,27.0590964 L49.3200763,25.1964578 L47.8062901,25.1964578 C47.7325496,25.1964578 47.6914656,25.1503373 47.6840916,25.056 C47.6756641,24.9627108 47.7135878,24.8054819 47.7947023,24.5811687 C47.8368397,24.4658675 47.8768702,24.3683855 47.9158473,24.2897711 C47.953771,24.2101084 47.9927481,24.1482651 48.0296183,24.1000482 C48.0685954,24.0528795 48.1054656,24.017241 48.1423359,23.9952289 C48.1792061,23.9721687 48.2171298,23.9606386 48.254,23.9606386 L50.9539542,23.9606386 C51.0192672,23.9606386 51.0740458,23.9721687 51.1172366,23.9952289 C51.1604275,24.017241 51.193084,24.0507831 51.2162595,24.0969036 C51.2394351,24.1430241 51.248916,24.1975301 51.2457557,24.2614699 C51.2436489,24.3254096 51.2278473,24.3987831 51.1983511,24.4826386 L50.0395725,27.6796265 C49.9953282,27.8043614 49.9331756,27.9133735 49.8573282,28.0056145 C49.779374,28.0989036 49.6645496,28.1722771 49.5107481,28.2267831 C49.358,28.280241 49.171542,28.3357952 48.9534809,28.394494 C48.7343664,28.4521446 48.5120916,28.5014096 48.2845496,28.5433373 C48.0570076,28.5842169 47.8315725,28.6146145 47.6082443,28.6355783 C47.384916,28.6565422 47.1636947,28.6670241 46.9445802,28.6670241 C46.3061985,28.6670241 45.7678931,28.5747831 45.3307176,28.3913494 C44.8924885,28.2058193 44.5617099,27.9395783 44.3383817,27.5905301 C44.1150534,27.2404337 44.0023359,26.8138193 43.9991756,26.3106867 C43.9960153,25.8075542 44.1097863,25.2373373 44.3404885,24.6000361 C44.5785649,23.9417711 44.8914351,23.3516386 45.2780458,22.8275422 C45.6657099,22.3034458 46.1070992,21.859012 46.6022137,21.4921446 C47.0983817,21.1252771 47.636687,20.8454096 48.2202901,20.6504458 C48.8038931,20.4565301 49.4096183,20.3590482 50.040626,20.3590482 C50.3861527,20.3590482 50.6927023,20.3831566 50.9592214,20.4313735 C51.2257405,20.4785422 51.4532824,20.5361928 51.6407939,20.6043253 C51.8283053,20.6724578 51.9778931,20.7468795 52.0895573,20.8244458 C52.2001679,20.9041084 52.2739084,20.9711928 52.3086718,21.0298916 C52.3434351,21.0875422 52.3539695,21.1693012 52.3402748,21.2751687 C52.3265802,21.3810361 52.2823359,21.5372169 52.207542,21.7437108" id="Fill-17" fill="#3A3A3A"></path>
                    <path d="M29.5534198,28.4343253 C29.5260305,28.4647229 29.4775725,28.4909277 29.4080458,28.5118916 C29.3395725,28.5328554 29.2437099,28.5475301 29.120458,28.5559157 C28.999313,28.563253 28.8349771,28.5674458 28.6285038,28.5674458 C28.4557405,28.5674458 28.3187939,28.563253 28.2187176,28.5559157 C28.1196947,28.5475301 28.0438473,28.5318072 27.992229,28.508747 C27.9406107,28.4867349 27.9079542,28.4563373 27.8963664,28.421747 C27.8837252,28.3871566 27.8805649,28.3441807 27.8805649,28.2949157 C27.8805649,28.2949157 27.1062901,25.2457229 26.9345802,25.2457229 L26.4268244,25.2457229 L25.3175573,28.3064458 C25.3038626,28.3483735 25.2764733,28.3861084 25.2385496,28.4186024 C25.1995725,28.4521446 25.1458473,28.4783494 25.0763206,28.4993133 C25.0078473,28.5202771 24.9193588,28.5370482 24.8098015,28.5496265 C24.7034046,28.5611566 24.5696183,28.5674458 24.4094962,28.5674458 C24.2525344,28.5674458 24.1240153,28.5611566 24.0228855,28.5496265 C23.9228092,28.5370482 23.8459084,28.5202771 23.7921832,28.4993133 C23.7352977,28.4783494 23.7036947,28.4521446 23.6910534,28.4186024 C23.6784122,28.3861084 23.6784122,28.3483735 23.6942137,28.3064458 L26.336229,21.0110241 C26.4025954,20.8286386 26.4963511,20.6976145 26.6185496,20.6169036 C26.7386412,20.5361928 26.8682137,20.4953133 27.0051603,20.4953133 L28.0256776,20.6143725 L27.9159448,21.269493 L26.9500388,23.7586949 C26.9500388,23.7586949 29.7595206,21.0511835 30.1544087,20.6579619 C30.2862381,20.4342784 32.0200167,20.5925992 31.7345614,20.8763354 C31.449106,21.1600717 28.286904,24.3083965 28.223111,24.3266366 C28.3221339,24.3842872 29.6524427,27.8043614 29.6524427,27.8043614 C29.6577099,27.9605422 29.6577099,28.0758434 29.6503359,28.1481687 C29.6450687,28.220494 29.6355878,28.2781446 29.6197863,28.3190241" id="Fill-10-Copy" fill="#3A3A3A"></path>
                    <path d="M13.7604105,28.5414157 C13.5409448,28.6287651 13.2137012,28.568494 12.9818458,28.568494 C12.7220279,28.568494 12.7937641,28.5737349 12.6411356,28.563253 C12.4885072,28.5527711 12.4067026,28.4103916 12.3338837,28.2793675 C12.2853378,28.126506 12.42167,26.7070783 12.42167,26.7070783 L9.89781503,26.6197289 L8.93216618,27.9081325 C8.87158086,28.0035181 8.71210657,28.176994 8.64686084,28.2356928 C8.5816151,28.296488 8.58912075,28.4434096 8.48775684,28.4759036 C8.38522783,28.5094458 8.23240523,28.5527711 8.07511641,28.563253 C7.91899269,28.5737349 7.91598056,28.568494 7.66548355,28.568494 C7.40217041,28.568494 6.86918908,28.563253 7.00086847,28.2793675 C7.13254786,27.9954819 7.3025587,27.7773725 8.19648124,26.5760542 C9.09040378,25.3747359 12.4295872,20.8370241 12.4295872,20.8370241 C12.4785215,20.7594578 12.528621,20.6944699 12.5787204,20.6452048 C12.6276547,20.5959398 12.6929004,20.5571566 12.7744576,20.5309518 C12.8560147,20.5036988 12.9597088,20.4848313 13.0878701,20.4743494 C13.2148663,20.4638675 13.3803108,20.4586265 13.5853688,20.4586265 C13.8044081,20.4586265 13.8089868,20.4313735 13.935983,20.439759 C14.0629791,20.4481446 14.1168099,20.4572289 14.1773952,20.4834337 C14.2368154,20.5106867 14.318205,20.5651928 14.3310211,20.6144578 C14.3426722,20.6637229 14.3900606,20.794747 14.3749143,20.876506 C14.3749143,20.876506 14.0457158,25.8335843 14.0018227,26.8162651 C13.9579295,27.7989458 13.9798761,28.4540663 13.7604105,28.5414157 Z M12.9922807,22.2304217 C12.9922807,22.2304217 12.6597469,22.2740964 12.4655631,22.5579819 C12.2713794,22.8418675 10.556212,25.3968373 10.556212,25.3968373 L12.6630822,25.440512 L12.9922807,22.2304217 Z" id="Fill-11-Copy" fill="#3A3A3A"></path>
                </g>
            </g>
        </g>
    </g>
</svg>